<mxfile host="app.diagrams.net" modified="2023-12-08T06:03:05.180Z" agent="Mozilla/5.0 (Windows NT 10.0; Win64; x64) AppleWebKit/537.36 (KHTML, like Gecko) Chrome/120.0.0.0 Safari/537.36 Edg/120.0.0.0" version="22.1.7" etag="o0CBGuP_r7miUrnVXXNr" type="github">
  <diagram name="Page-1" id="csyNs9XLkxJu8AB1P3qT">
    <mxGraphModel>
      <root>
        <mxCell id="0" />
        <mxCell id="1" parent="0" />
      </root>
    </mxGraphModel>
  </diagram>
</mxfile>
